<svg enable-background="new 0 0 512.004 512.004" height="20" viewBox="0 0 512.004 512.004" width="20" xmlns="http://www.w3.org/2000/svg"><g><circle cx="400.004" cy="306.003" r="15"/><path  style="fill: white" d="m497.004 231.003h-230.722c-54.893 0-100.199-41.831-105.715-95.291 16.024-5.581 29.41-13.685 39.901-24.175 35.573-35.572 32.791-93.823 32.655-96.285-.422-7.634-6.518-13.73-14.151-14.151-2.465-.135-60.713-2.918-96.285 32.654-2.115 2.115-4.142 4.365-6.074 6.743-1.934-2.378-3.96-4.627-6.075-6.743-35.572-35.572-93.828-32.789-96.285-32.653-7.634.421-13.73 6.516-14.152 14.15-.136 2.462-2.918 60.713 32.655 96.285 12.12 12.121 27.976 21.016 47.247 26.525v117.941c0 76.939 37.229 148.217 100 192.305v47.695c0 8.284 6.716 15 15 15 25.439 0 48.574-10.052 65.644-26.392 17.842 4.24 36.084 6.392 54.356 6.392 108.626 0 197-88.374 197-197v-48c.001-8.284-6.715-15-14.999-15zm-344.489 150h27.489v29.203c-10.169-8.886-19.365-18.668-27.489-29.203zm57.489 98.254v-113.254c0-8.284-6.716-15-15-15h-61.69c-15.095-28.841-23.31-61.293-23.31-95v-129.733c0-7.146-5.042-13.301-12.049-14.707-18.883-3.79-33.682-10.936-43.985-21.24-16.883-16.881-21.933-42.616-23.392-58.705 16.128 1.494 41.968 6.573 58.747 23.352 5.348 5.347 9.945 12.148 13.667 20.215 2.45 5.313 7.768 8.716 13.619 8.717h.001c5.851 0 11.169-3.403 13.62-8.715 3.723-8.068 8.321-14.87 13.668-20.217 16.898-16.898 42.664-21.941 58.75-23.396-1.455 16.096-6.499 41.855-23.395 58.75-9.111 9.111-21.874 15.793-37.935 19.86-6.655 1.686-11.317 7.675-11.317 14.541 0 75.145 61.134 136.279 136.278 136.279h215.722v33c0 20.009-3.541 39.205-10.023 57h-196.976c-8.284 0-15 6.716-15 15v50c0 16.065-5.865 30.78-15.557 42.136-.153.178-.308.353-.453.539-8.773 10.058-20.585 17.4-33.99 20.578zm104.999-18.254c-11.656 0-23.302-1.003-34.81-2.989 6.276-12.674 9.811-26.936 9.811-42.011v-35h167.495c-29.381 47.945-82.264 80-142.496 80z"/></g></svg>